<?xml version="1.0" encoding="utf-8"?>
<svg xmlns="http://www.w3.org/2000/svg" viewBox="0 0 500 500">
  <ellipse style="transform-box: fill-box; transform-origin: 50% 50%; stroke: rgb(65, 95, 255); fill: rgba(216, 216, 216, 0); stroke-width: 10px;" cx="248.146" cy="252.44" rx="227.46" ry="220.607" transform="matrix(0.999999, 0.001631, -0.001631, 0.999999, 1.628169, -1.076585)"/>
  <path d="M 329.668 311.054 L 353.238 311.054 L 329.205 286.504 C 324.02 281.21 324.02 272.623 329.205 267.337 C 334.388 262.035 342.792 262.035 347.976 267.337 L 394.385 314.735 C 396.975 317.387 398.272 320.851 398.272 324.323 C 398.272 327.795 396.975 331.265 394.385 333.911 L 347.976 381.316 C 342.792 386.612 334.388 386.612 329.205 381.316 C 324.02 376.022 324.02 367.436 329.205 362.141 L 352.666 338.175 L 321.775 338.175 L 321.543 338.176 C 319.306 338.189 317.266 338.19 315.391 338.175 L 315.076 338.175 C 314.933 338.175 314.793 338.173 314.652 338.169 C 306.101 338.08 301.081 337.63 296.59 336.33 C 291.269 334.79 285.186 330.548 276.36 323.121 C 269.587 317.424 261.323 309.859 251.884 300.78 C 249.665 298.644 247.454 296.494 245.252 294.344 C 244.209 293.321 243.167 292.305 242.124 291.282 C 240.881 290.073 239.957 289.17 239.056 288.288 C 234.215 283.576 230.712 280.246 227.371 277.207 C 219.317 269.882 212.994 265.081 207.549 262.266 C 206.089 261.512 204.689 260.9 203.293 260.392 C 197.353 258.257 192.486 257.906 174.563 258.003 C 167.097 258.04 162.931 258.032 157.581 257.95 L 93.845 257.95 C 86.521 257.95 80.575 251.887 80.575 244.398 C 80.575 236.909 86.521 230.831 93.845 230.831 L 188.976 230.831 C 189.78 230.831 190.566 230.906 191.332 231.047 C 192.253 231.099 193.157 231.152 194.104 231.219 C 200.833 231.712 206.51 232.802 212.126 234.825 C 214.616 235.721 217.07 236.797 219.539 238.073 C 227.439 242.158 235.401 248.206 245.019 256.95 C 248.633 260.235 252.332 263.752 257.372 268.666 C 258.286 269.554 259.225 270.464 260.479 271.689 L 263.6 274.743 C 265.687 276.782 267.781 278.82 269.885 280.843 C 279.13 289.737 286.99 296.935 293.237 302.191 C 296.504 304.939 299.272 307.105 301.445 308.621 C 302.431 309.307 303.249 309.83 303.861 310.173 C 305.979 310.748 310.009 311.01 316.568 311.054 L 321.701 311.054 C 322.308 311.054 322.91 311.048 323.993 311.04 C 326.904 311.024 328.122 311.017 329.668 311.017 L 329.668 311.054 Z" fill="#415FFF" p-id="28203" style="stroke-width: 1;"/>
  <path d="M 329.668 177.734 L 353.238 177.734 L 329.205 202.278 C 324.02 207.579 324.02 216.159 329.205 221.46 C 334.388 226.747 342.792 226.747 347.976 221.46 L 394.385 174.053 C 396.975 171.402 398.272 167.937 398.272 164.457 C 398.272 160.993 396.975 157.529 394.385 154.878 L 347.976 107.471 C 342.792 102.177 334.388 102.177 329.205 107.471 C 324.02 112.765 324.02 121.352 329.205 126.646 L 352.666 150.614 L 321.775 150.614 L 321.543 150.614 C 319.306 150.6 317.266 150.6 315.391 150.614 L 315.076 150.614 C 314.933 150.614 314.793 150.614 314.652 150.622 C 306.101 150.712 301.081 151.16 296.59 152.459 C 291.269 153.997 285.186 158.238 276.36 165.668 C 269.587 171.364 261.323 178.929 251.884 188.009 C 249.665 190.144 247.454 192.287 245.252 194.445 C 244.209 195.468 243.167 196.483 242.124 197.499 C 240.881 198.716 239.957 199.619 239.056 200.5 C 234.215 205.204 230.712 208.542 227.371 211.581 C 219.317 218.898 212.994 223.707 207.549 226.522 C 206.089 227.276 204.689 227.889 203.293 228.389 C 197.353 230.533 192.486 230.89 174.563 230.793 C 167.097 230.748 162.931 230.748 157.581 230.831 L 93.845 230.831 C 86.521 230.831 80.575 236.909 80.575 244.398 C 80.575 251.887 86.521 257.95 93.845 257.95 L 188.976 257.95 C 189.78 257.95 190.566 257.875 191.332 257.741 C 192.253 257.689 193.157 257.636 194.104 257.569 C 200.833 257.076 206.51 255.986 212.126 253.971 C 214.616 253.067 217.07 251.992 219.539 250.715 C 227.439 246.63 235.401 240.583 245.019 231.839 C 248.633 228.553 252.332 225.036 257.372 220.131 C 258.286 219.235 259.225 218.316 260.479 217.099 L 263.6 214.045 C 265.687 211.999 267.781 209.968 269.885 207.945 C 279.13 199.045 286.99 191.854 293.237 186.597 C 296.504 183.849 299.272 181.676 301.445 180.168 C 302.431 179.481 303.249 178.951 303.861 178.615 C 305.979 178.04 310.009 177.778 316.568 177.734 L 321.701 177.734 C 322.308 177.734 322.91 177.734 323.993 177.742 C 326.904 177.764 328.122 177.772 329.668 177.772 L 329.668 177.734 Z" fill="#415FFF" p-id="28204" style="stroke-width: 1;"/>
</svg>